<svg xmlns="http://www.w3.org/2000/svg" version="1.1" xmlns:xlink="http://www.w3.org/1999/xlink" xmlns:svgjs="http://svgjs.dev/svgjs" width="1500" height="1500" viewBox="0 0 1500 1500"><rect width="1500" height="1500" fill="#000000"></rect><g transform="matrix(0.6666666666666666,0,0,0.6666666666666666,249.39393939393938,672.0374396261152)"><svg viewBox="0 0 396 62" data-background-color="#ffffff" preserveAspectRatio="xMidYMid meet" height="234" width="1500" xmlns="http://www.w3.org/2000/svg" xmlns:xlink="http://www.w3.org/1999/xlink"><g id="tight-bounds" transform="matrix(1,0,0,1,0.2400000000000091,-0.014879851404771216)"><svg viewBox="0 0 395.52 62.02975970280956" height="62.02975970280956" width="395.52"><g><svg viewBox="0 0 486.6397024477248 76.32014513723482" height="62.02975970280956" width="395.52"><g transform="matrix(1,0,0,1,0,22.48762247787331)"><svg viewBox="0 0 395.52 31.344900181488203" height="31.344900181488203" width="395.52"><g id="textblocktransform"><svg viewBox="0 0 395.52 31.344900181488203" height="31.344900181488203" width="395.52" id="textblock"><g><svg viewBox="0 0 395.52 31.344900181488203" height="31.344900181488203" width="395.52"><g transform="matrix(1,0,0,1,0,0)"><svg width="395.52" viewBox="2.1 -32.3 413.21 32.75" height="31.344900181488203" data-palette-color="#aaaaaa"><path d="M13.35-32.3Q16.8-32.3 20.5-30.8L20.5-30.8 19.85-26.95 19.15-26.75Q17.7-27.85 16.07-28.45 14.45-29.05 12.85-29.05L12.85-29.05Q11-29.05 9.63-28.3 8.25-27.55 7.53-26.35 6.8-25.15 6.8-23.85L6.8-23.85Q6.8-22.5 7.63-21.48 8.45-20.45 9.7-19.7 10.95-18.95 13.1-17.9L13.1-17.9Q15.8-16.65 17.45-15.58 19.1-14.5 20.28-12.85 21.45-11.2 21.45-8.85L21.45-8.85Q21.45-6.35 20.1-4.25 18.75-2.15 16.3-0.9 13.85 0.35 10.7 0.35L10.7 0.35Q8.6 0.35 6.33-0.23 4.05-0.8 2.1-1.9L2.1-1.9 2.6-6 3.15-6.25Q4.9-4.55 7.03-3.73 9.15-2.9 11.1-2.9L11.1-2.9Q13-2.9 14.48-3.65 15.95-4.4 16.73-5.65 17.5-6.9 17.5-8.3L17.5-8.3Q17.5-10.4 15.9-11.68 14.3-12.95 11.05-14.45L11.05-14.45Q8.4-15.75 6.8-16.78 5.2-17.8 4.05-19.43 2.9-21.05 2.9-23.4L2.9-23.4Q2.9-25.85 4.23-27.9 5.55-29.95 7.93-31.13 10.3-32.3 13.35-32.3L13.35-32.3ZM48.95-24.9L48.8-7.8 48.9 0 45.2 0 45.35-7.5 45.3-10.9 31.75-10.85 31.7-7.8 31.8 0 28.1 0 28.25-7.5 28.1-24.9 31.85-24.9 31.75-14.2 38.5-14.15 45.3-14.2 45.2-24.9 48.95-24.9ZM68.55-24.9L77.3 0 73.55 0 72.95-2.7 71.65-6.4 65.7-6.45 60.4-6.4 59.05-2.9 58.35 0 54.65 0 64.25-24.9 68.55-24.9ZM66-9.4L70.59-9.45 66.45-21.25 66.15-21.25 61.6-9.45 66-9.4ZM94.94-10.05Q97.99-5.4 101.69-0.9L101.69-0.9 101.64-0.4Q99.54 0.25 98.19 0.35L98.19 0.35 97.54-0.05Q93.74-5.8 91.79-9.1L91.79-9.1 87.09-9.05 87.09-7.8 87.19 0 83.49 0 83.64-7.5 83.49-24.9 91.99-24.95Q95.94-24.95 98.07-23.1 100.19-21.25 100.19-17.75L100.19-17.75Q100.19-15.2 98.82-13.2 97.44-11.2 94.94-10.05L94.94-10.05ZM87.19-21.9L87.14-12.15 91.84-12Q96.29-13.25 96.29-17.45L96.29-17.45Q96.29-19.65 94.99-20.75 93.69-21.85 91.04-21.95L91.04-21.95 87.19-21.9ZM117.59-25.2Q123.04-25.2 125.97-22 128.89-18.8 128.89-12.95L128.89-12.95Q128.89-6.6 125.77-3.13 122.64 0.35 116.84 0.35L116.84 0.35Q111.44 0.35 108.49-2.93 105.54-6.2 105.54-12.25L105.54-12.25Q105.54-18.45 108.69-21.83 111.84-25.2 117.59-25.2L117.59-25.2ZM117.24-22.05Q113.29-22.05 111.37-19.8 109.44-17.55 109.44-12.7L109.44-12.7Q109.44-7.5 111.34-5.15 113.24-2.8 117.14-2.8L117.14-2.8Q121.14-2.8 123.09-5.1 125.04-7.4 125.04-12.3L125.04-12.3Q125.04-17.35 123.12-19.7 121.19-22.05 117.24-22.05L117.24-22.05ZM145.44-25.2Q150.89-25.2 153.81-22 156.74-18.8 156.74-12.95L156.74-12.95Q156.74-6.6 153.61-3.13 150.49 0.35 144.69 0.35L144.69 0.35Q139.29 0.35 136.34-2.93 133.39-6.2 133.39-12.25L133.39-12.25Q133.39-18.45 136.54-21.83 139.69-25.2 145.44-25.2L145.44-25.2ZM145.09-22.05Q141.14-22.05 139.21-19.8 137.29-17.55 137.29-12.7L137.29-12.7Q137.29-7.5 139.19-5.15 141.09-2.8 144.99-2.8L144.99-2.8Q148.99-2.8 150.94-5.1 152.89-7.4 152.89-12.3L152.89-12.3Q152.89-17.35 150.96-19.7 149.04-22.05 145.09-22.05L145.09-22.05ZM182.19-24.95L171.59-13.25Q176.89-6.75 182.84-0.85L182.84-0.85 182.74-0.3Q181.19 0.2 179.14 0.45L179.14 0.45 178.54 0.2Q172.14-7 167.49-13L167.49-13 167.49-13.3 176.09-22.7 177.74-24.9 182.19-24.95ZM167.24-24.9L167.09-7.8 167.19 0 163.49 0 163.64-7.5 163.49-24.9 167.24-24.9ZM208.83-24.9L208.68-7.8 208.78 0 205.08 0 205.23-7.5 205.18-10.9 191.63-10.85 191.58-7.8 191.68 0 187.98 0 188.13-7.5 187.98-24.9 191.73-24.9 191.63-14.2 198.38-14.15 205.18-14.2 205.08-24.9 208.83-24.9ZM239.23-12.95Q242.53-7.5 247.53-0.95L247.53-0.95 247.48-0.45Q245.68 0.25 243.78 0.45L243.78 0.45 243.23 0.1Q239.13-6.05 235.88-11.9L235.88-11.9 230.03-11.9 230.03-10 230.23 0 226.18 0 226.43-9.65 226.18-32.05 235.98-32.1Q240.68-32.1 243.25-29.73 245.83-27.35 245.83-22.95L245.83-22.95Q245.83-19.65 244.1-17.03 242.38-14.4 239.23-12.95L239.23-12.95ZM230.23-28.65L230.08-15.3 236.08-15.15Q241.68-16.75 241.68-22.6L241.68-22.6Q241.68-25.65 240.03-27.18 238.38-28.7 235.08-28.8L235.08-28.8 230.23-28.65ZM264.43-24.9L273.18 0 269.43 0 268.83-2.7 267.53-6.4 261.58-6.45 256.28-6.4 254.93-2.9 254.23 0 250.53 0 260.13-24.9 264.43-24.9ZM261.88-9.4L266.48-9.45 262.33-21.25 262.03-21.25 257.48-9.45 261.88-9.4ZM300.22-24.9L300.07-7.8 300.17 0 296.47 0 296.62-7.5 296.57-10.9 283.02-10.85 282.97-7.8 283.07 0 279.37 0 279.52-7.5 279.37-24.9 283.12-24.9 283.02-14.2 289.77-14.15 296.57-14.2 296.47-24.9 300.22-24.9ZM319.82-24.9L328.57 0 324.82 0 324.22-2.7 322.92-6.4 316.97-6.45 311.67-6.4 310.32-2.9 309.62 0 305.92 0 315.52-24.9 319.82-24.9ZM317.27-9.4L321.87-9.45 317.72-21.25 317.42-21.25 312.87-9.45 317.27-9.4ZM358.72-24.9L361.27 0 357.92 0 357.37-7.6 356.02-19.1 355.72-19.1 348.57-2.8 345.62-2.8 338.87-19.1 338.57-19.1 337.27-7.9 336.57 0 333.37 0 336.12-24.9 340.47-24.9 341.72-21.15 347.17-7.75 347.47-7.75 353.17-21.35 354.47-24.9 358.72-24.9ZM379.57-24.9L388.32 0 384.57 0 383.97-2.7 382.67-6.4 376.72-6.45 371.42-6.4 370.07-2.9 369.37 0 365.67 0 375.27-24.9 379.57-24.9ZM377.02-9.4L381.62-9.45 377.47-21.25 377.17-21.25 372.62-9.45 377.02-9.4ZM415.31-25L415.16-7.45 415.21 0 411.21 0 398.11-19 397.86-19 397.81-8.3 397.91 0 394.51 0 394.66-7.35 394.56-24.9 398.51-24.9 411.61-5.9 411.96-5.9 411.86-24.75 415.31-25Z" opacity="1" transform="matrix(1,0,0,1,0,0)" fill="#ffffff" class="wordmark-text-0" data-fill-palette-color="primary" id="text-0"></path></svg></g></svg></g></svg></g></svg></g><g transform="matrix(1,0,0,1,410.31955731049,0)"><svg viewBox="0 0 76.32014513723482 76.32014513723482" height="76.32014513723482" width="76.32014513723482"><g><svg></svg></g><g id="icon-0"><svg viewBox="0 0 76.32014513723482 76.32014513723482" height="76.32014513723482" width="76.32014513723482"><g><path d="M0 38.16c0-21.075 17.085-38.16 38.16-38.16 21.075 0 38.16 17.085 38.16 38.16 0 21.075-17.085 38.16-38.16 38.16-21.075 0-38.16-17.085-38.16-38.16zM38.16 73.493c19.514 0 35.333-15.819 35.333-35.333 0-19.514-15.819-35.333-35.333-35.333-19.514 0-35.333 15.819-35.333 35.333 0 19.514 15.819 35.333 35.333 35.333z" data-fill-palette-color="accent" fill="#ffffff" stroke="transparent"></path></g><g transform="matrix(1,0,0,1,16.076908809282813,27.94445513061049)"><svg viewBox="0 0 44.16632751866919 20.43123487601384" height="20.43123487601384" width="44.16632751866919"><g><svg xmlns="http://www.w3.org/2000/svg" xmlns:xlink="http://www.w3.org/1999/xlink" version="1.1" x="0" y="0" viewBox="5.00012766544102 29.18274754009011 90.00102251764125 41.63425245990989" enable-background="new 0 0 100 100" xml:space="preserve" height="20.43123487601384" width="44.16632751866919" class="icon-dxe-0" data-fill-palette-color="accent" id="dxe-0"><g fill="#aaaaaa" data-fill-palette-color="accent"><path fill="none" d="M14.014 46.323C14.136 46.445 14.264 46.506 14.385 46.484A0.3 0.3 0 0 0 14.545 46.401C15.135 48.237 16.267 50.067 17.693 51.159 18.515 51.789 19.436 52.174 20.407 52.174 21.4 52.174 22.339 51.771 23.176 51.116 24.577 50.02 25.688 48.214 26.27 46.401A0.3 0.3 0 0 0 26.43 46.484C26.534 46.503 26.643 46.461 26.75 46.37 27.016 46.144 27.268 45.616 27.382 44.974 27.531 44.137 27.396 43.404 27.081 43.256A0.2 0.2 0 0 0 27.01 43.234C26.913 43.217 26.811 43.253 26.712 43.331L26.707 43.337V43.336L26.704 43.338 26.703 43.32C26.325 41.885 25.849 41.007 25.357 40.483A1.5 1.5 0 0 0 25.053 40.354C25.04 40.565 25.282 40.887 25.307 41.2 24.625 40.883 23.974 40.388 23.021 40.354A12 12 0 0 0 22.31 40.353C20.013 41.174 17.486 40.245 17.486 40.245 14.606 39.978 14.149 42.971 14.114 43.313L14.112 43.338H14.111C14.008 43.255 13.904 43.217 13.804 43.234A0.3 0.3 0 0 0 13.681 43.287C13.592 43.351 13.521 43.472 13.469 43.627 13.44 44.03 13.422 44.437 13.417 44.857 13.423 44.897 13.426 44.934 13.434 44.974 13.542 45.575 13.767 46.076 14.014 46.323"></path><path fill="none" d="M73.502 46.542C73.623 46.663 73.75 46.723 73.869 46.702A0.3 0.3 0 0 0 74.027 46.619C74.611 48.435 75.73 50.244 77.141 51.324 77.954 51.947 78.865 52.328 79.826 52.328 80.807 52.328 81.737 51.93 82.564 51.283 83.95 50.198 85.047 48.412 85.624 46.619A0.3 0.3 0 0 0 85.782 46.702C85.886 46.72 85.993 46.678 86.099 46.589 86.362 46.366 86.611 45.843 86.723 45.208 86.871 44.38 86.738 43.655 86.427 43.508A0.3 0.3 0 0 0 86.357 43.486C86.26 43.47 86.16 43.505 86.062 43.583L86.056 43.589 86.055 43.587 86.052 43.589 86.051 43.571C85.677 42.152 85.206 41.282 84.72 40.765A1.5 1.5 0 0 0 84.42 40.637C84.407 40.846 84.646 41.165 84.671 41.475 83.997 41.161 83.352 40.673 82.41 40.637 82.19 40.629 81.951 40.631 81.707 40.637 79.435 41.449 76.936 40.53 76.936 40.53 74.087 40.265 73.635 43.225 73.6 43.564L73.598 43.588H73.597C73.496 43.506 73.393 43.468 73.294 43.486A0.3 0.3 0 0 0 73.173 43.538C73.083 43.602 73.014 43.721 72.963 43.874 72.934 44.272 72.917 44.675 72.91 45.091 72.916 45.13 72.92 45.168 72.927 45.207 73.034 45.802 73.258 46.297 73.502 46.542"></path><path fill="none" d="M41.685 45.554C41.84 45.709 42.002 45.786 42.157 45.76A0.4 0.4 0 0 0 42.36 45.654C43.111 47.989 44.549 50.315 46.363 51.704 47.409 52.505 48.58 52.994 49.815 52.994 51.077 52.994 52.273 52.481 53.335 51.65 55.117 50.256 56.529 47.959 57.271 45.654A0.4 0.4 0 0 0 57.474 45.76C57.606 45.783 57.745 45.729 57.881 45.614 58.22 45.327 58.539 44.656 58.685 43.84 58.874 42.776 58.704 41.842 58.304 41.654A0.4 0.4 0 0 0 58.213 41.625C58.089 41.604 57.959 41.649 57.833 41.749L57.826 41.757 57.825 41.755 57.821 41.758 57.819 41.735C57.339 39.91 56.733 38.793 56.108 38.128A2 2 0 0 0 55.722 37.964C55.706 38.233 56.013 38.642 56.045 39.04 55.178 38.636 54.349 38.009 53.139 37.964A16 16 0 0 0 52.235 37.962C49.313 39.006 46.101 37.825 46.101 37.825 42.438 37.485 41.857 41.29 41.812 41.726L41.81 41.757H41.809C41.679 41.652 41.546 41.603 41.419 41.625A0.4 0.4 0 0 0 41.263 41.692C41.148 41.774 41.058 41.928 40.992 42.124A28 28 0 0 0 40.925 43.689C40.933 43.739 40.937 43.788 40.946 43.838 41.083 44.603 41.371 45.24 41.685 45.554"></path><path d="M32.931 55.313C31.611 54.073 30.361 53.961 29.959 53.868 28.594 53.548 26.941 53.684 26.059 53.41 25.955 54.274 23.44 57.121 21.79 58.904L21.075 56.149C21.613 55.833 21.729 55.132 21.729 54.552H19.02C19.02 55.127 19.136 55.821 19.662 56.141L18.96 58.904C17.31 57.12 14.794 54.274 14.69 53.409 13.809 53.684 12.155 53.548 10.791 53.868 10.098 54.029 6.876 54.235 5.132 60.234 4.896 61.048 4.979 61.934 5.363 62.66 6.791 65.362 14.302 66.192 20.375 66.191 23.017 66.192 25.931 66.035 28.498 65.634A6.1 6.1 0 0 1 28.615 62.727C29.588 59.38 31.034 56.903 32.931 55.313" fill="#ffffff" data-fill-palette-color="accent"></path><path d="M13.348 47.024C13.991 48.752 15.007 50.43 16.265 51.659 16.976 52.355 17.765 52.905 18.606 53.239A4.9 4.9 0 0 0 20.407 53.594C21.027 53.594 21.631 53.467 22.209 53.239 23.079 52.893 23.894 52.316 24.625 51.586 25.852 50.361 26.843 48.709 27.473 47.01 27.957 46.868 28.466 45.96 28.672 44.801 28.897 43.543 28.684 42.446 28.199 42.263 28.217 41.956 28.228 41.646 28.227 41.327 28.215 36.768 25.542 34.118 21.328 33.835 17.653 33.588 14.885 35.049 13.624 37.476 13.2 38.292 12.957 39.314 12.865 40.423A7.5 7.5 0 0 0 12.64 42.222H12.653L12.652 42.237 12.624 42.24C12.087 42.334 11.843 43.48 12.079 44.801 12.295 46.015 12.842 46.953 13.348 47.024M13.469 43.627C13.521 43.472 13.592 43.351 13.681 43.287A0.3 0.3 0 0 1 13.804 43.234C13.904 43.216 14.008 43.255 14.111 43.338H14.112L14.114 43.313C14.149 42.971 14.606 39.978 17.486 40.245 17.486 40.245 20.012 41.174 22.31 40.353 22.557 40.348 22.798 40.346 23.021 40.354 23.973 40.389 24.625 40.883 25.307 41.2 25.282 40.887 25.04 40.565 25.053 40.354 25.162 40.385 25.261 40.431 25.357 40.483 25.849 41.006 26.325 41.885 26.703 43.32L26.704 43.338 26.707 43.336V43.338L26.712 43.332C26.811 43.254 26.914 43.218 27.01 43.235A0.3 0.3 0 0 1 27.081 43.257C27.396 43.404 27.531 44.138 27.382 44.975 27.268 45.617 27.016 46.145 26.75 46.371 26.643 46.461 26.534 46.503 26.43 46.485A0.3 0.3 0 0 1 26.27 46.402C25.687 48.215 24.577 50.021 23.176 51.117 22.34 51.771 21.401 52.175 20.407 52.175 19.436 52.175 18.515 51.79 17.693 51.16 16.266 50.068 15.134 48.238 14.545 46.402A0.3 0.3 0 0 1 14.385 46.485C14.264 46.506 14.136 46.446 14.014 46.324 13.766 46.076 13.541 45.576 13.433 44.975 13.426 44.935 13.422 44.897 13.416 44.858 13.422 44.437 13.44 44.03 13.469 43.627" fill="#ffffff" data-fill-palette-color="accent"></path><path fill="#ffffff" d="M94.87 60.301C93.145 54.367 89.959 54.163 89.272 54.003 87.922 53.688 86.287 53.821 85.416 53.549 85.263 54.826 82.805 55.843 79.794 55.843S74.325 54.826 74.173 53.549C73.3 53.823 71.665 53.688 70.316 54.003 69.889 54.103 68.493 54.221 67.084 55.727 68.754 57.32 70.043 59.66 70.935 62.728A6.1 6.1 0 0 1 71.073 65.526C73.77 66.006 76.943 66.193 79.796 66.192 85.801 66.194 93.23 65.372 94.642 62.7A3.25 3.25 0 0 0 94.87 60.301" data-fill-palette-color="accent"></path><path d="M72.844 47.235C73.48 48.944 74.486 50.605 75.729 51.818 76.433 52.506 77.213 53.05 78.045 53.381 78.616 53.607 79.213 53.734 79.826 53.734S81.035 53.607 81.607 53.381C82.468 53.039 83.274 52.468 83.997 51.745 85.21 50.535 86.19 48.9 86.813 47.22 87.292 47.079 87.794 46.181 87.999 45.035 88.222 43.791 88.012 42.706 87.532 42.525 87.55 42.221 87.56 41.914 87.559 41.599 87.548 37.09 84.905 34.113 80.736 33.833 77.102 33.589 74.364 35.033 73.117 37.434 72.697 38.241 72.458 39.607 72.367 40.705A7.4 7.4 0 0 0 72.144 42.484H72.158L72.156 42.498C72.147 42.499 72.138 42.499 72.13 42.501 71.599 42.594 71.357 43.728 71.589 45.034 71.804 46.237 72.345 47.165 72.844 47.235M72.965 43.875C73.016 43.722 73.085 43.603 73.175 43.539A0.3 0.3 0 0 1 73.296 43.487C73.395 43.469 73.498 43.508 73.599 43.589H73.6L73.602 43.565C73.637 43.226 74.089 40.266 76.938 40.531 76.938 40.531 79.436 41.449 81.709 40.638 81.953 40.633 82.192 40.631 82.412 40.638 83.353 40.674 83.999 41.161 84.673 41.476 84.648 41.166 84.409 40.848 84.422 40.638 84.529 40.669 84.627 40.715 84.722 40.766 85.208 41.284 85.679 42.153 86.053 43.572L86.054 43.59 86.057 43.588 86.058 43.59 86.064 43.584C86.162 43.506 86.262 43.471 86.359 43.487A0.3 0.3 0 0 1 86.429 43.509C86.74 43.655 86.873 44.381 86.725 45.209 86.613 45.844 86.364 46.367 86.101 46.59 85.995 46.679 85.887 46.721 85.784 46.703A0.3 0.3 0 0 1 85.626 46.62C85.05 48.413 83.952 50.199 82.566 51.284 81.739 51.93 80.809 52.329 79.828 52.329 78.867 52.329 77.957 51.948 77.143 51.325 75.732 50.245 74.613 48.436 74.029 46.62A0.3 0.3 0 0 1 73.871 46.703C73.752 46.724 73.625 46.663 73.504 46.543 73.26 46.298 73.036 45.803 72.931 45.209 72.924 45.17 72.92 45.132 72.914 45.093 72.919 44.677 72.936 44.274 72.965 43.875" fill="#ffffff" data-fill-palette-color="accent"></path><path d="M40.838 46.445C41.655 48.642 42.948 50.778 44.547 52.338 45.452 53.224 46.454 53.923 47.524 54.348 48.26 54.639 49.026 54.801 49.815 54.801S51.37 54.639 52.106 54.348C53.212 53.909 54.25 53.175 55.178 52.246 56.738 50.688 57.998 48.587 58.799 46.427 59.415 46.245 60.062 45.092 60.324 43.618 60.609 42.019 60.34 40.624 59.722 40.391 59.744 40.001 59.759 39.606 59.758 39.201 59.743 33.404 56.345 29.576 50.985 29.217 46.314 28.904 42.793 30.759 41.19 33.845 40.65 34.884 40.342 36.639 40.224 38.051A9.6 9.6 0 0 0 39.938 40.339H39.956L39.954 40.357 39.92 40.361C39.236 40.48 38.925 41.938 39.225 43.617 39.5 45.162 40.196 46.354 40.838 46.445M40.993 42.125C41.059 41.929 41.149 41.775 41.264 41.693A0.36 0.36 0 0 1 41.42 41.626C41.547 41.604 41.68 41.653 41.81 41.758L41.813 41.727C41.858 41.291 42.439 37.485 46.102 37.826 46.102 37.826 49.313 39.007 52.236 37.963 52.549 37.957 52.856 37.954 53.14 37.965 54.35 38.01 55.179 38.637 56.046 39.041 56.014 38.643 55.707 38.233 55.723 37.965 55.862 38.005 55.988 38.064 56.109 38.129 56.734 38.795 57.339 39.911 57.82 41.736L57.822 41.759C57.824 41.759 57.824 41.757 57.826 41.756L57.827 41.758 57.834 41.75C57.96 41.65 58.09 41.605 58.214 41.626A0.4 0.4 0 0 1 58.305 41.655C58.704 41.843 58.875 42.776 58.686 43.841 58.54 44.657 58.221 45.328 57.882 45.615 57.745 45.73 57.607 45.784 57.475 45.761A0.4 0.4 0 0 1 57.272 45.655C56.531 47.96 55.119 50.257 53.336 51.651 52.273 52.482 51.078 52.995 49.816 52.995 48.581 52.995 47.41 52.506 46.364 51.705 44.55 50.316 43.112 47.99 42.361 45.655A0.4 0.4 0 0 1 42.158 45.761C42.004 45.787 41.842 45.711 41.686 45.555 41.372 45.241 41.084 44.603 40.948 43.84 40.939 43.789 40.934 43.74 40.927 43.691 40.934 43.156 40.957 42.638 40.993 42.125" fill="#ffffff" data-fill-palette-color="accent"></path><path fill="#ffffff" d="M61.961 55.147C60.226 54.741 58.123 54.914 57.002 54.563 56.806 56.206 53.644 57.511 49.774 57.511 45.903 57.511 42.743 56.205 42.545 54.563 41.424 54.915 39.322 54.741 37.586 55.147 36.705 55.353 32.608 55.615 30.391 63.243 30.09 64.279 30.196 65.405 30.686 66.328 32.5 69.76 42.037 70.817 49.753 70.817H49.793C57.51 70.817 67.046 69.759 68.86 66.328 69.35 65.405 69.456 64.278 69.156 63.243 66.939 55.615 62.843 55.354 61.961 55.147" data-fill-palette-color="accent"></path></g></svg></g></svg></g></svg></g></svg></g></svg></g><defs></defs></svg><rect width="395.52" height="62.02975970280956" fill="none" stroke="none" visibility="hidden"></rect></g></svg></g></svg>